<?xml version="1.0" standalone="no"?>
<!DOCTYPE svg PUBLIC "-//W3C//DTD SVG 20010904//EN"
 "http://www.w3.org/TR/2001/REC-SVG-20010904/DTD/svg10.dtd">
<svg version="1.0" xmlns="http://www.w3.org/2000/svg"
 width="208.000000pt" height="242.000000pt" viewBox="0 0 208.000000 242.000000"
 preserveAspectRatio="xMidYMid meet">

<g transform="translate(0.000000,242.000000) scale(0.100000,-0.100000)"
fill="#000000" stroke="none">
<path d="M0 1210 l0 -1210 1040 0 1040 0 0 1210 0 1210 -1040 0 -1040 0 0
-1210z m1555 1060 c-15 -7 -16 -9 -4 -9 9 -1 20 -9 23 -18 15 -42 39 -74 50
-70 7 3 13 -1 13 -8 0 -7 -8 -10 -19 -7 -10 2 -18 8 -18 13 0 18 -20 8 -65
-31 -25 -22 -54 -41 -63 -41 -25 -2 -46 2 -52 9 -3 4 -21 15 -40 24 -19 10
-42 23 -52 30 -13 9 -25 9 -58 -2 -24 -8 -48 -20 -56 -27 -7 -7 -19 -13 -26
-13 -7 0 -23 -7 -35 -15 -18 -13 -25 -13 -48 -1 -15 8 -40 28 -56 45 -36 40
-69 40 -111 0 l-33 -31 40 26 c22 14 45 26 52 26 7 0 34 -21 60 -46 35 -33 42
-44 26 -39 -15 4 -23 2 -23 -6 0 -7 -7 -5 -16 7 -8 10 -13 14 -11 9 3 -6 -3
-22 -14 -35 -18 -24 -20 -24 -33 -6 -8 10 -20 15 -26 11 -7 -4 -9 1 -5 18 6
24 5 24 -44 22 -41 -2 -51 1 -51 14 0 9 -11 29 -25 44 -38 40 -75 36 -114 -10
-31 -38 -31 -38 -49 -17 -14 17 -22 19 -45 11 -15 -5 -27 -13 -27 -18 0 -5 -4
-9 -10 -9 -5 0 -9 5 -7 11 1 6 -4 13 -11 15 -7 1 -8 0 -3 -2 11 -6 2 -44 -11
-44 -5 0 -24 -11 -43 -26 -24 -18 -35 -22 -41 -13 -4 8 -3 9 4 5 6 -4 17 2 24
14 7 11 18 20 25 20 7 0 15 16 19 35 5 30 10 35 28 30 11 -2 15 -2 9 1 -17 8
-16 30 3 59 9 13 13 29 9 35 -8 12 9 13 55 0 19 -5 60 -11 90 -14 30 -3 89
-10 130 -16 130 -19 525 -3 567 23 5 3 26 8 47 11 22 4 42 9 45 11 2 3 14 5
25 4 21 0 21 -1 1 -9z m-730 -115 c37 -36 32 -59 -17 -78 -37 -15 -44 -15 -65
-2 -29 19 -29 52 -1 82 28 30 53 29 83 -2z m500 -6 c4 -5 18 -14 32 -20 30
-11 25 -34 -8 -34 -15 0 -25 -7 -27 -18 -5 -23 -19 -21 -47 7 -18 18 -25 21
-29 10 -6 -16 -34 -18 -55 -5 -10 7 0 17 40 40 57 32 83 38 94 20z m275 -2 c8
-7 31 -30 50 -51 33 -35 34 -38 17 -51 -23 -16 -47 -9 -48 14 0 12 -2 11 -8
-4 -5 -12 -4 -23 3 -27 16 -11 2 -10 -28 2 -17 6 -26 17 -26 30 0 19 -2 20
-15 6 -8 -8 -15 -20 -15 -26 0 -8 -9 -10 -25 -6 -15 4 -25 2 -25 -5 0 -17 -45
-5 -48 14 -2 11 8 23 28 35 18 9 50 32 72 50 45 36 47 36 68 19z m60 -32 c14
-19 14 -19 -2 -6 -10 7 -18 18 -18 24 0 6 1 8 3 6 1 -2 9 -13 17 -24z m-1274
6 c-8 -13 31 -44 45 -35 8 4 10 3 5 -4 -4 -7 -2 -12 3 -12 6 0 11 -7 11 -15 0
-17 -25 -20 -35 -5 -13 21 -23 9 -20 -22 2 -18 1 -27 -2 -20 -2 6 -11 12 -18
12 -8 0 -21 7 -29 16 -15 14 -17 14 -32 0 -14 -15 -34 -21 -34 -12 0 2 -3 11
-6 19 -3 10 13 26 53 51 61 38 67 41 59 27z m289 -3 c18 -8 25 -18 22 -29 -3
-10 0 -21 7 -24 6 -3 -6 -3 -26 -1 -21 3 -40 0 -44 -5 -4 -6 -10 -6 -19 1 -9
8 -14 6 -19 -6 -6 -15 -8 -15 -27 2 l-21 19 33 27 c37 31 55 34 94 16z m450
-88 c-3 -5 -11 -10 -16 -10 -6 0 -7 5 -4 10 3 6 11 10 16 10 6 0 7 -4 4 -10z
m65 0 c0 -5 -2 -10 -4 -10 -3 0 -8 5 -11 10 -3 6 -1 10 4 10 6 0 11 -4 11 -10z
m-100 -40 c0 -5 -5 -10 -11 -10 -5 0 -7 5 -4 10 3 6 8 10 11 10 2 0 4 -4 4
-10z m-30 -9 c0 -6 -4 -13 -10 -16 -5 -3 -10 1 -10 9 0 9 5 16 10 16 6 0 10
-4 10 -9z m-846 -51 c10 -13 9 -13 -6 -1 -10 7 -18 21 -17 30 0 13 1 14 6 1 3
-8 11 -22 17 -30z m1030 14 c21 5 26 3 26 -13 0 -11 6 -21 13 -24 6 -2 9 -7 6
-11 -3 -3 -15 3 -26 13 -11 10 -28 21 -38 22 -10 2 -20 11 -22 19 -4 12 -3 13
5 1 7 -9 19 -11 36 -7z m578 -19 c-8 -11 -9 -16 -11 -47 l-2 -23 -9 23 c-13
30 -19 28 -14 -5 7 -45 -2 -141 -16 -158 -11 -14 -10 -153 1 -183 5 -13 7 -27
4 -31 -4 -3 -42 -6 -85 -7 -71 -2 -78 -1 -65 13 8 8 13 18 11 22 -3 4 -8 34
-11 67 -10 92 -44 214 -76 270 -30 53 -36 74 -21 74 5 0 17 -18 27 -40 10 -22
22 -37 28 -33 6 3 7 1 3 -6 -4 -6 -1 -35 8 -64 19 -61 56 -246 56 -276 0 -14
6 -21 20 -21 19 0 20 7 22 123 l2 122 3 -115 c4 -118 8 -135 32 -121 14 9 21
118 22 314 0 68 4 97 12 97 7 0 6 4 -3 10 -10 7 -11 10 -2 10 7 0 15 -6 18
-14 8 -21 34 -8 34 18 0 16 2 18 9 6 6 -8 7 -19 3 -25z m-1136 -5 c8 0 14 -4
14 -10 0 -11 32 -1 42 14 5 7 8 4 8 -6 0 -19 34 -25 44 -9 3 5 17 11 30 13 24
5 24 4 8 -17 -9 -13 -20 -21 -24 -18 -5 2 -8 -1 -8 -7 0 -6 -5 -8 -12 -4 -8 5
-9 2 -4 -11 5 -15 4 -16 -8 -6 -12 10 -14 9 -9 -7 3 -14 -4 -25 -26 -38 -31
-18 -40 -34 -21 -34 6 0 10 4 10 9 0 4 18 21 40 36 22 15 38 30 36 34 -2 3 9
16 24 29 24 18 31 20 42 9 7 -7 20 -18 30 -23 9 -5 35 -26 57 -47 23 -22 46
-35 53 -31 7 4 8 3 4 -4 -4 -6 2 -17 14 -24 18 -12 20 -23 20 -117 l0 -103
-45 6 c-45 7 -55 0 -33 -22 7 -7 8 -12 2 -12 -5 0 -15 9 -21 19 -11 17 -24 19
-127 18 -63 -1 -117 0 -120 3 -7 8 -10 196 -3 207 3 5 2 15 -4 23 -7 12 -9 11
-9 -5 0 -15 -3 -17 -9 -7 -6 10 -10 8 -14 -10 -4 -12 -2 -24 3 -26 6 -2 10
-43 10 -90 0 -60 -3 -82 -10 -72 -8 13 -10 12 -10 -2 0 -10 -6 -18 -13 -18 -8
0 -22 -9 -32 -20 -26 -28 -35 -25 -35 13 1 37 28 190 44 245 3 9 7 33 10 54 7
43 29 95 34 79 2 -6 10 -11 18 -11z m812 -12 c5 -18 15 -32 21 -30 7 1 10 -2
7 -7 -3 -5 3 -35 13 -67 28 -87 34 -117 21 -109 -5 3 -10 17 -10 30 0 13 -7
41 -16 62 -37 86 -56 123 -65 128 -14 9 -11 25 6 25 8 0 18 -15 23 -32z m77
22 c3 -5 1 -10 -4 -10 -6 0 -11 5 -11 10 0 6 2 10 4 10 3 0 8 -4 11 -10z
m-1222 -53 c3 -23 9 -51 13 -60 3 -9 2 -17 -4 -17 -5 0 -12 19 -16 43 -3 23
-9 53 -12 66 -5 15 -3 22 3 18 6 -4 13 -26 16 -50z m107 38 c0 -8 -9 -24 -20
-35 -11 -11 -16 -20 -12 -20 4 0 3 -25 -2 -55 -8 -43 -12 -51 -18 -35 -4 11
-5 26 -2 34 3 8 -2 35 -10 60 -17 50 -20 68 -8 49 14 -21 62 -20 62 2 0 8 2
15 5 15 3 0 5 -7 5 -15z m110 11 c0 -3 -5 -17 -12 -33 -6 -15 -13 -39 -15 -53
-2 -13 -8 -29 -13 -35 -4 -5 -11 -29 -15 -52 -4 -24 -10 -43 -15 -43 -4 0 -2
24 6 53 8 28 17 61 19 72 12 62 25 95 36 95 5 0 9 -2 9 -4z m54 -4 c-13 -9
-25 -37 -35 -87 -4 -22 -13 -60 -19 -85 -6 -25 -15 -61 -19 -80 -7 -29 -9 -30
-10 -10 0 14 13 79 29 145 17 66 30 121 30 122 0 2 8 3 18 3 10 0 13 -3 6 -8z
m770 -13 c-3 -5 2 -21 11 -36 20 -31 73 -235 82 -315 5 -52 4 -58 -13 -59 -81
-5 -336 -6 -326 -2 6 2 12 9 12 14 0 15 199 225 210 222 3 -1 6 7 7 17 1 16
-3 17 -30 9 -17 -5 -32 -7 -34 -6 -7 7 -5 115 2 127 5 9 4 11 -3 6 -7 -4 -12
-1 -12 7 0 8 7 17 15 21 8 3 15 1 15 -4 0 -15 27 -12 42 4 14 15 32 11 22 -5z
m276 11 c0 -5 -5 -10 -11 -10 -5 0 -7 5 -4 10 3 6 8 10 11 10 2 0 4 -4 4 -10z
m-1172 -25 c-6 -14 -13 -24 -14 -22 -6 6 9 47 17 47 5 0 3 -11 -3 -25z m957
-6 c5 -23 9 -28 16 -18 7 12 9 11 10 -1 1 -8 1 -21 0 -28 -1 -8 7 -41 17 -75
23 -71 33 -117 37 -161 1 -17 6 -50 10 -73 4 -25 4 -43 -2 -43 -5 0 -14 46
-21 103 -13 114 -45 225 -79 276 -27 39 -29 51 -9 51 8 0 18 -14 21 -31z m155
21 c0 -5 11 -10 23 -10 25 0 26 -2 18 -125 l-3 -40 -10 35 c-5 19 -12 46 -15
60 -3 14 -14 37 -24 51 -17 25 -16 39 3 39 4 0 8 -4 8 -10z m101 -57 c-4 -66
-5 -67 -11 -24 -7 45 -2 91 9 91 3 0 4 -30 2 -67z m-1471 32 c0 -14 -2 -25 -4
-25 -2 0 -6 11 -8 25 -3 14 -1 25 3 25 5 0 9 -11 9 -25z m62 -31 c4 -16 11
-98 14 -181 7 -140 9 -153 26 -153 20 0 21 12 18 190 -2 132 9 89 14 -56 4
-103 8 -130 20 -132 10 -2 17 13 25 55 28 149 55 269 62 278 12 12 12 -17 0
-48 -5 -13 -12 -37 -15 -53 -3 -16 -10 -50 -15 -75 -6 -26 -12 -72 -15 -103
-5 -51 -4 -56 14 -56 11 0 20 5 20 11 0 6 -7 9 -14 6 -10 -4 -13 -1 -9 8 3 8
9 13 13 10 5 -3 11 16 15 42 3 27 10 62 15 78 7 24 8 19 5 -25 -11 -133 -11
-134 8 -138 13 -3 17 4 17 31 0 20 7 40 17 48 15 12 15 12 7 -4 -15 -26 -5
-77 15 -77 14 0 14 -2 1 -10 -8 -5 -74 -9 -146 -9 l-132 0 4 111 c3 76 1 114
-7 118 -8 6 -8 13 0 28 8 15 8 23 0 27 -6 4 -8 13 -5 21 3 7 0 17 -7 21 -15
10 -18 56 -3 65 18 12 29 4 38 -28z m975 -86 c-2 -13 -4 -3 -4 22 0 25 2 35 4
23 2 -13 2 -33 0 -45z m-24 20 c4 -26 -1 -39 -21 -60 -14 -16 -29 -28 -34 -28
-14 0 -9 27 7 40 8 7 15 25 15 40 0 49 25 56 33 8z m-84 -80 c0 -35 4 -74 9
-88 10 -23 11 -23 11 14 1 31 8 45 36 72 32 30 65 37 65 13 0 -5 5 -9 10 -9 6
0 10 7 10 16 0 8 5 12 10 9 6 -4 -22 -43 -62 -88 -92 -102 -119 -126 -140
-127 -27 0 -24 58 4 87 12 13 16 23 10 23 -7 0 -12 -4 -12 -10 0 -5 -4 -10
-10 -10 -6 0 -10 27 -10 63 0 60 2 63 33 79 17 9 33 17 35 17 1 1 2 -27 1 -61z
m-84 -53 c0 -54 -4 -80 -12 -82 -10 -4 -13 17 -13 82 0 63 3 86 12 83 8 -3 12
-31 13 -83z m494 -15 c0 -10 -3 -8 -9 5 -12 27 -12 43 0 25 5 -8 9 -22 9 -30z
m10 -27 c-1 -5 -1 -15 0 -23 1 -13 2 -13 11 0 5 8 10 10 10 4 0 -6 -3 -14 -7
-18 -5 -4 -8 -24 -8 -44 0 -29 -4 -37 -20 -40 -15 -2 -17 -1 -6 6 11 8 12 24
7 66 -4 35 -2 56 4 56 5 0 9 -3 9 -7z m-1088 -76 c-10 -9 -11 -8 -5 6 3 10 9
15 12 12 3 -3 0 -11 -7 -18z m589 14 c0 -6 -4 -13 -10 -16 -5 -3 -10 1 -10 9
0 9 5 16 10 16 6 0 10 -4 10 -9z m-385 -11 c14 -6 16 -9 5 -10 -8 -1 -25 -3
-37 -4 -25 -3 -31 9 -10 17 16 7 19 7 42 -3z m55 -10 c0 -5 -7 -7 -15 -4 -8 4
-15 8 -15 10 0 2 7 4 15 4 8 0 15 -4 15 -10z m865 0 c3 -5 1 -10 -4 -10 -6 0
-11 5 -11 10 0 6 2 10 4 10 3 0 8 -4 11 -10z m-841 -31 c3 -3 -17 -6 -44 -7
-28 -1 -50 1 -50 5 0 8 87 10 94 2z m56 7 c0 -2 -7 -7 -16 -10 -8 -3 -12 -2
-9 4 6 10 25 14 25 6z m70 -6 c0 -5 -4 -10 -10 -10 -5 0 -10 5 -10 10 0 6 5
10 10 10 6 0 10 -4 10 -10z m70 6 c0 -2 -7 -7 -16 -10 -8 -3 -12 -2 -9 4 6 10
25 14 25 6z m808 -78 c6 -13 18 -43 26 -68 8 -25 28 -74 44 -110 30 -64 82
-181 82 -184 0 0 -414 -1 -920 -1 -506 0 -920 4 -920 8 0 5 7 21 15 35 23 41
125 272 125 283 0 5 7 21 16 34 l16 25 752 0 753 0 11 -22z m-1082 -425 c-6
-23 -17 -80 -18 -90 0 -5 -4 -15 -8 -23 -4 -8 -11 -31 -14 -50 -3 -19 -15 -66
-26 -105 -11 -38 -27 -99 -36 -135 -25 -100 -73 -273 -78 -278 -12 -11 -150
48 -193 83 -7 5 -32 26 -56 45 -87 71 -175 202 -201 301 -14 55 -16 235 -2
257 5 9 90 12 322 12 296 0 315 -1 310 -17z m725 -57 c5 3 9 3 9 1 0 -3 7 -21
15 -41 9 -21 11 -36 5 -36 -5 0 -10 7 -10 15 0 8 -4 15 -8 15 -9 0 -33 45 -31
58 0 4 3 1 6 -6 2 -6 9 -10 14 -6z m89 -8 c0 -6 -7 -8 -15 -4 -20 7 -19 0 6
-36 15 -21 18 -33 11 -40 -13 -13 -32 4 -56 49 -21 41 -20 46 4 38 11 -4 20
-2 20 4 0 6 7 8 15 5 8 -4 15 -11 15 -16z m84 -44 c27 -26 32 -65 11 -81 -22
-16 -35 -3 -35 37 0 14 -5 32 -10 40 -8 12 -10 9 -6 -10 14 -72 16 -99 8 -104
-13 -8 -30 32 -35 81 -4 33 -1 43 12 46 30 8 40 7 55 -9z m-153 -30 c8 -10 9
-18 3 -22 -6 -4 -7 -18 -3 -32 l7 -25 1 25 1 24 16 -22 c9 -13 14 -26 11 -28
-3 -3 4 -15 16 -27 20 -20 20 -22 4 -25 -21 -4 -47 15 -47 34 0 8 -4 14 -9 14
-10 0 -15 13 -26 68 -7 35 4 42 26 16z m-448 -15 l26 -20 30 22 c25 18 38 21
82 16 29 -4 57 -11 63 -17 5 -5 18 -10 28 -10 10 0 20 -10 23 -22 3 -13 14
-66 25 -118 12 -52 24 -97 27 -100 7 -7 -3 52 -22 129 -8 35 -14 69 -12 75 5
15 24 -22 30 -59 11 -58 37 -181 51 -240 18 -71 19 -88 7 -81 -5 4 -12 24 -16
46 -4 22 -11 40 -15 40 -5 0 -4 -15 1 -32 5 -18 9 -34 9 -35 0 -2 -13 -3 -29
-3 -16 0 -31 -6 -34 -13 -3 -9 5 -12 29 -9 27 3 39 -1 55 -19 12 -13 25 -23
30 -21 5 1 9 -2 9 -8 0 -6 -40 -10 -101 -10 -89 0 -100 2 -89 15 11 13 8 15
-19 15 -33 0 -42 -16 -13 -23 9 -3 -14 -5 -51 -6 -38 0 -76 -5 -85 -9 -20 -11
-102 -3 -102 8 0 5 8 11 18 13 9 3 1 5 -18 5 -19 0 -29 -2 -22 -5 23 -9 12
-23 -18 -23 -32 0 -41 16 -12 23 9 3 -8 6 -38 7 -37 2 -45 4 -23 7 17 2 37 11
45 20 11 14 10 15 -7 10 -11 -3 -39 -9 -62 -12 -27 -4 -43 -12 -43 -21 0 -8 5
-14 10 -14 6 0 10 -5 10 -10 0 -11 -117 -7 -127 4 -4 3 -1 6 6 6 7 0 22 11 32
24 13 16 28 23 51 23 38 0 114 21 143 40 11 7 15 13 10 13 -21 0 -91 -23 -104
-33 -11 -10 -70 -11 -79 -2 -1 1 2 15 9 31 6 16 19 70 29 119 10 50 26 126 35
171 l17 80 52 16 c72 23 118 22 149 -3z m523 -37 c3 -9 10 -25 16 -36 6 -12 6
-22 -1 -29 -8 -8 -11 -7 -11 2 0 8 -7 19 -15 25 -8 6 -19 26 -24 43 -9 31 -8
32 10 22 11 -6 22 -18 25 -27z m-747 -42 c-5 -25 -12 -52 -16 -60 -8 -20 -10
-29 -11 -68 -1 -19 -6 -31 -12 -27 -5 3 -7 0 -4 -9 6 -17 -32 -176 -47 -191
-5 -5 -9 -6 -9 -1 0 7 25 122 56 252 8 33 14 68 14 77 0 9 4 17 10 17 5 0 7 7
4 15 -6 13 14 50 22 42 2 -1 -1 -23 -7 -47z m871 40 c0 -5 -6 -14 -12 -20 -7
-6 -33 -28 -58 -50 -25 -22 -47 -34 -49 -28 -2 6 20 33 50 60 53 48 69 57 69
38z m-919 -111 c-11 -46 -22 -95 -25 -109 -6 -35 -25 -118 -37 -162 -5 -21
-14 -38 -20 -38 -6 0 -8 4 -5 8 4 6 44 174 61 252 7 32 27 116 31 129 3 8 7
12 9 9 3 -3 -4 -43 -14 -89z m599 39 c0 -10 18 -91 40 -180 22 -89 38 -164 35
-166 -5 -5 -7 0 -24 58 -14 47 -71 308 -71 323 0 19 20 -15 20 -35z m334 27
c3 -9 0 -15 -9 -15 -9 0 -29 -13 -47 -30 -33 -32 -48 -38 -47 -17 0 12 75 77
89 77 4 0 10 -7 14 -15z m63 -137 c40 -61 71 -113 69 -116 -5 -4 -37 22 -130
110 l-71 67 24 25 c14 14 27 26 30 26 3 0 39 -51 78 -112z m-877 -268 c0 -5
-11 -10 -25 -10 -14 0 -25 5 -25 10 0 6 11 10 25 10 14 0 25 -4 25 -10z"/>
<path d="M843 1813 c-7 -2 -13 -20 -13 -39 0 -27 5 -35 24 -40 14 -3 33 -1 43
5 14 9 12 9 -14 5 -32 -6 -33 -6 -33 30 0 26 4 36 16 36 17 0 38 -18 47 -40 4
-11 6 -10 6 4 2 32 -41 54 -76 39z"/>
<path d="M722 1648 c1 -37 2 -38 5 -10 3 22 10 32 21 32 11 0 13 -3 6 -8 -7
-4 -8 -15 -3 -29 12 -32 15 -29 14 15 0 31 -4 38 -22 40 -21 3 -23 0 -21 -40z"/>
<path d="M792 1648 c1 -37 2 -38 5 -10 6 45 25 40 21 -5 -2 -21 -8 -38 -15
-38 -6 0 -15 -3 -19 -7 -4 -5 5 -8 20 -8 26 0 27 1 24 52 -2 41 -7 54 -20 56
-15 3 -18 -4 -16 -40z"/>
<path d="M863 1683 c-8 -3 -13 -23 -13 -54 0 -43 3 -49 21 -49 15 0 19 5 15
15 -3 8 -2 15 2 15 11 0 8 69 -3 73 -5 2 -16 2 -22 0z m15 -52 c-1 -22 -5 -38
-10 -35 -12 8 -10 74 2 74 6 0 10 -17 8 -39z"/>
<path d="M910 1646 c0 -47 9 -66 31 -66 16 0 19 8 19 50 0 47 -2 50 -25 50
-22 0 -25 -4 -25 -34z m40 -16 c0 -46 -16 -54 -22 -12 -5 33 0 52 13 52 5 0 9
-18 9 -40z"/>
<path d="M982 1638 l1 -43 4 38 c5 48 23 48 23 0 0 -45 14 -35 16 13 2 30 -1
34 -22 34 -22 0 -24 -4 -22 -42z"/>
<path d="M725 1590 c3 -5 13 -10 21 -10 8 0 12 5 9 10 -3 6 -13 10 -21 10 -8
0 -12 -4 -9 -10z"/>
<path d="M988 1583 c6 -2 18 -2 25 0 6 3 1 5 -13 5 -14 0 -19 -2 -12 -5z"/>
<path d="M1132 1721 c-11 -31 -7 -41 15 -41 8 0 13 13 13 35 0 43 -14 46 -28
6z"/>
<path d="M1120 1661 c0 -5 5 -13 10 -16 6 -3 10 -2 10 4 0 5 -4 13 -10 16 -5
3 -10 2 -10 -4z"/>
<path d="M310 1376 c0 -39 12 -51 38 -41 14 7 13 9 -8 15 l-25 7 25 11 c24 10
24 11 3 11 -13 1 -23 5 -23 10 0 5 10 12 23 14 19 4 18 4 -5 6 -25 1 -28 -2
-28 -33z"/>
<path d="M375 1400 c-8 -14 3 -30 21 -30 8 0 14 -5 14 -11 0 -7 -9 -9 -21 -6
-13 3 -19 1 -16 -6 6 -19 41 -14 45 6 3 12 -4 20 -17 24 -12 3 -21 10 -21 15
0 6 9 8 20 5 11 -3 20 -1 20 4 0 12 -37 11 -45 -1z"/>
<path d="M434 1383 c-8 -29 17 -56 42 -46 22 8 17 20 -8 19 -17 -1 -23 5 -23
19 0 14 6 20 22 19 12 0 20 3 17 8 -12 19 -44 7 -50 -19z"/>
<path d="M502 1385 c-2 -35 13 -56 34 -48 9 3 13 19 12 42 l-1 36 -4 -32 c-3
-19 -10 -33 -18 -33 -8 0 -15 14 -18 33 l-4 32 -1 -30z"/>
<path d="M570 1370 c0 -33 3 -40 20 -40 11 0 20 5 20 10 0 6 -7 10 -15 10 -21
0 -19 18 3 23 16 4 16 5 0 6 -10 0 -18 5 -18 10 0 5 8 12 18 14 13 4 11 5 -5
6 -20 1 -23 -4 -23 -39z"/>
<path d="M632 1373 c-2 -37 1 -43 18 -43 11 0 20 5 20 10 0 6 -6 10 -14 10 -9
0 -16 13 -19 33 -3 28 -4 26 -5 -10z"/>
<path d="M691 1373 c-6 -20 -8 -39 -6 -42 3 -2 5 1 5 8 0 8 8 11 20 8 21 -5
24 3 14 41 -9 32 -22 27 -33 -15z m16 -5 c-3 -8 -6 -5 -6 6 -1 11 2 17 5 13 3
-3 4 -12 1 -19z"/>
<path d="M777 1402 c6 -4 13 -23 16 -42 l4 -35 1 37 c1 20 8 39 15 41 6 3 -1
6 -18 6 -17 0 -25 -3 -18 -7z"/>
<path d="M840 1370 c0 -33 3 -40 20 -40 11 0 20 5 20 10 0 6 -7 10 -15 10 -21
0 -19 18 3 23 16 4 16 5 0 6 -10 0 -18 5 -18 10 0 5 8 12 18 14 13 4 11 5 -5
6 -20 1 -23 -4 -23 -39z"/>
<path d="M907 1403 c-13 -12 -7 -50 8 -63 11 -10 19 -10 27 -2 6 6 16 8 23 6
13 -5 25 32 17 54 -8 24 -23 11 -19 -15 4 -25 1 -28 -24 -30 -25 -2 -29 1 -29
24 0 20 4 24 20 20 11 -3 20 -1 20 4 0 10 -33 12 -43 2z"/>
<path d="M996 1385 c-7 -27 -1 -45 15 -45 5 0 9 16 9 35 0 41 -15 47 -24 10z"/>
<path d="M1033 1370 c0 -25 2 -35 4 -22 2 12 2 32 0 45 -2 12 -4 2 -4 -23z"/>
<path d="M1067 1403 c-4 -3 -7 -19 -7 -34 0 -30 25 -46 46 -28 11 9 14 8 14
-2 0 -12 2 -12 9 0 5 8 16 11 25 8 19 -7 20 1 5 40 -10 27 -11 27 -21 8 -13
-25 -50 -55 -60 -49 -4 3 -8 17 -8 31 0 20 4 24 20 20 11 -3 20 -1 20 4 0 10
-33 12 -43 2z m80 -35 c-3 -8 -6 -5 -6 6 -1 11 2 17 5 13 3 -3 4 -12 1 -19z"/>
<path d="M1227 1403 c-4 -3 -7 -19 -7 -34 0 -26 22 -45 41 -33 17 10 9 22 -11
17 -16 -4 -20 0 -20 22 0 22 4 26 20 22 11 -3 20 -1 20 4 0 10 -33 12 -43 2z"/>
<path d="M1285 1391 c-6 -21 9 -61 24 -61 16 0 33 29 29 52 -4 31 -44 37 -53
9z m45 -17 c0 -19 -4 -25 -17 -22 -28 5 -25 48 3 48 8 0 14 -10 14 -26z"/>
<path d="M1360 1368 c0 -49 5 -47 13 5 3 20 2 37 -4 37 -5 0 -9 -19 -9 -42z"/>
<path d="M1404 1395 c-3 -8 -4 -20 -1 -27 3 -8 6 -5 8 7 1 12 5 6 9 -15 l7
-35 2 43 c1 41 -14 57 -25 27z"/>
<path d="M1440 1375 c0 -36 16 -52 42 -42 8 3 3 9 -12 15 l-25 10 25 10 c24
10 24 11 3 11 -13 1 -23 5 -23 10 0 5 10 12 23 14 19 4 18 4 -5 6 -26 1 -28
-2 -28 -34z"/>
<path d="M1500 1373 c1 -31 3 -35 11 -20 12 21 29 22 29 3 0 -8 3 -17 8 -20 4
-2 6 13 4 35 -4 33 -7 39 -28 39 -21 0 -24 -5 -24 -37z m40 17 c0 -5 -7 -10
-15 -10 -8 0 -15 5 -15 10 0 6 7 10 15 10 8 0 15 -4 15 -10z"/>
<path d="M1577 1403 c-13 -12 -7 -50 9 -63 12 -11 18 -10 32 4 16 16 15 17
-11 10 -26 -6 -28 -4 -25 17 2 16 9 24 21 23 9 -1 17 2 17 7 0 10 -34 12 -43
2z"/>
<path d="M1643 1375 c0 -22 2 -30 4 -17 2 12 2 30 0 40 -3 9 -5 -1 -4 -23z"/>
<path d="M1670 1386 c-14 -39 -13 -51 4 -37 11 10 17 8 26 -6 9 -15 10 -12 5
17 -8 48 -22 59 -35 26z"/>
<path d="M1732 1373 c-2 -37 1 -43 18 -43 11 0 20 5 20 10 0 6 -6 10 -14 10
-9 0 -16 13 -19 33 -3 28 -4 26 -5 -10z"/>
<path d="M1381 1363 c-1 -12 4 -25 9 -28 12 -7 12 2 0 30 -8 19 -9 19 -9 -2z"/>
<path d="M730 1255 l0 -34 25 23 c14 13 25 28 25 35 0 6 -11 11 -25 11 -22 0
-25 -4 -25 -35z m40 15 c0 -5 -7 -10 -15 -10 -8 0 -15 5 -15 10 0 6 7 10 15
10 8 0 15 -4 15 -10z"/>
<path d="M791 1248 c1 -24 4 -33 6 -20 2 12 8 22 12 22 5 0 16 -10 25 -22 9
-13 14 -16 10 -8 -5 8 -7 27 -6 42 2 24 -1 28 -23 28 -23 0 -25 -3 -24 -42z
m39 22 c0 -5 -7 -10 -15 -10 -8 0 -15 5 -15 10 0 6 7 10 15 10 8 0 15 -4 15
-10z"/>
<path d="M864 1276 c-10 -25 0 -61 18 -64 21 -4 41 32 33 58 -7 23 -43 27 -51
6z m40 -5 c9 -14 -4 -41 -20 -41 -8 0 -14 10 -14 25 0 25 23 35 34 16z"/>
<path d="M931 1248 c1 -24 4 -33 6 -21 2 12 12 24 21 26 15 4 15 5 0 6 -26 2
-22 19 5 24 19 4 18 4 -5 6 -27 1 -28 -1 -27 -41z"/>
<path d="M990 1251 c0 -34 3 -40 20 -38 23 1 28 17 5 17 -23 0 -18 18 8 23
l22 4 -22 2 c-13 0 -23 5 -23 10 0 5 10 12 23 14 19 4 18 4 -5 6 -26 1 -28 -2
-28 -38z"/>
<path d="M1050 1275 c0 -9 7 -18 15 -21 8 -4 15 -11 15 -16 0 -6 -7 -8 -15 -4
-8 3 -15 1 -15 -5 0 -15 30 -23 42 -11 7 7 3 17 -11 31 -27 27 -27 34 0 26 15
-5 19 -4 15 4 -11 17 -46 13 -46 -4z"/>
<path d="M1114 1264 c-4 -17 -1 -31 10 -42 15 -15 17 -15 32 0 11 11 14 25 10
42 -9 35 -43 35 -52 0z m44 -12 c3 -17 -2 -22 -17 -22 -14 0 -21 6 -21 18 0
38 33 41 38 4z"/>
<path d="M1180 1255 c0 -19 5 -35 10 -35 6 0 9 5 8 11 -2 6 3 14 10 16 6 3 12
-2 12 -11 0 -8 4 -17 9 -20 5 -3 7 9 5 27 -1 17 -3 35 -3 40 -1 4 -12 7 -26 7
-22 0 -25 -4 -25 -35z m40 15 c0 -5 -4 -10 -9 -10 -6 0 -13 5 -16 10 -3 6 1
10 9 10 9 0 16 -4 16 -10z"/>
<path d="M471 1141 c-1 -28 -4 -32 -20 -28 -14 3 -18 1 -14 -9 13 -34 46 2 40
43 -4 26 -4 25 -6 -6z"/>
<path d="M495 1151 c-6 -21 9 -61 24 -61 16 0 33 29 29 52 -4 31 -44 37 -53 9z
m45 -16 c0 -25 -23 -35 -35 -15 -10 16 2 40 20 40 9 0 15 -9 15 -25z"/>
<path d="M570 1155 c0 -7 7 -18 16 -23 10 -6 14 -14 9 -22 -6 -9 -9 -9 -16 1
-7 11 -9 10 -9 -3 0 -23 29 -23 37 -2 4 10 -1 22 -10 29 -21 15 -22 29 -2 21
8 -3 15 -1 15 4 0 6 -9 10 -20 10 -11 0 -20 -7 -20 -15z"/>
<path d="M630 1132 c0 -31 4 -38 20 -39 11 -1 20 2 20 8 0 5 -7 9 -15 9 -21 0
-19 18 3 23 16 4 16 5 0 6 -10 0 -18 5 -18 10 0 5 8 12 18 14 13 4 11 5 -5 6
-20 1 -23 -4 -23 -37z"/>
<path d="M711 1128 c1 -24 4 -33 6 -20 2 12 8 22 12 22 5 0 16 -10 25 -22 9
-13 14 -16 10 -8 -5 8 -7 27 -6 42 2 24 -1 28 -23 28 -23 0 -25 -3 -24 -42z
m39 22 c0 -5 -7 -10 -15 -10 -8 0 -15 5 -15 10 0 6 7 10 15 10 8 0 15 -4 15
-10z"/>
<path d="M783 1130 c0 -25 2 -35 4 -22 2 12 2 32 0 45 -2 12 -4 2 -4 -23z"/>
<path d="M808 1158 c-7 -21 4 -56 19 -62 17 -7 33 1 33 16 0 7 -4 7 -13 -1
-17 -14 -27 -4 -27 27 0 19 4 23 20 19 11 -3 18 -1 14 4 -8 13 -42 11 -46 -3z"/>
<path d="M880 1158 c0 -7 -3 -23 -6 -36 -5 -18 -3 -21 11 -16 10 4 21 1 26 -7
14 -22 12 14 -3 46 -12 26 -28 34 -28 13z m17 -30 c-3 -8 -6 -5 -6 6 -1 11 2
17 5 13 3 -3 4 -12 1 -19z"/>
<path d="M941 1128 c1 -24 4 -33 6 -20 5 26 12 28 27 7 9 -12 11 -9 13 20 3
31 0 35 -22 35 -23 0 -25 -3 -24 -42z m39 22 c0 -5 -7 -10 -15 -10 -8 0 -15 5
-15 10 0 6 7 10 15 10 8 0 15 -4 15 -10z"/>
<path d="M1002 1133 c4 -44 30 -57 48 -23 16 31 4 60 -26 60 -23 0 -25 -3 -22
-37z m43 2 c0 -10 -6 -20 -12 -22 -8 -3 -13 5 -13 22 0 17 5 25 13 23 6 -3 12
-13 12 -23z"/>
<path d="M1074 1144 c-4 -17 -1 -31 10 -42 15 -15 17 -15 32 0 11 11 14 25 10
42 -9 35 -43 35 -52 0z m44 -12 c3 -17 -2 -22 -17 -22 -14 0 -21 6 -21 18 0
38 33 41 38 4z"/>
<path d="M1177 1163 c-12 -11 -8 -50 7 -62 16 -14 46 -4 46 15 0 8 -8 14 -17
14 -15 0 -16 -2 -3 -10 12 -8 10 -10 -8 -10 -19 0 -23 5 -20 23 2 16 9 21 26
20 13 -2 21 1 17 7 -7 11 -38 13 -48 3z"/>
<path d="M1240 1141 c0 -33 25 -60 41 -44 13 13 19 73 7 73 -4 0 -8 -13 -8
-30 0 -16 -4 -30 -9 -30 -12 0 -24 37 -16 50 3 5 1 10 -4 10 -6 0 -11 -13 -11
-29z"/>
<path d="M1313 1130 c0 -25 2 -35 4 -22 2 12 2 32 0 45 -2 12 -4 2 -4 -23z"/>
<path d="M1342 1133 c-2 -37 1 -43 18 -43 11 0 20 5 20 11 0 6 -6 9 -14 6 -11
-4 -16 4 -19 31 l-4 37 -1 -42z"/>
<path d="M1402 1133 c-2 -37 1 -43 18 -43 11 0 20 5 20 10 0 6 -6 10 -14 10
-9 0 -16 13 -19 33 -3 28 -4 26 -5 -10z"/>
<path d="M1460 1130 c0 -33 3 -40 20 -40 11 0 20 5 20 10 0 6 -7 10 -15 10
-21 0 -19 18 3 23 16 4 16 5 0 6 -10 0 -18 5 -18 10 0 5 8 12 18 14 13 4 11 5
-5 6 -20 1 -23 -4 -23 -39z"/>
<path d="M1521 1135 c1 -40 1 -40 10 -10 5 18 5 33 -1 39 -7 7 -10 -4 -9 -29z"/>
<path d="M1562 1152 c-1 -13 -6 -20 -12 -17 -12 8 -13 -5 0 -25 13 -22 22 -6
17 32 -2 20 -4 24 -5 10z"/>
<path d="M370 995 c0 -8 -4 -15 -10 -15 -5 0 -10 -7 -10 -15 0 -8 -16 -27 -35
-42 -19 -15 -35 -32 -35 -38 0 -5 5 -3 10 5 7 12 12 12 22 2 10 -10 8 -14 -10
-19 -36 -9 -44 -75 -27 -233 6 -54 4 -68 -9 -79 -26 -22 -19 -35 28 -56 36
-16 41 -22 28 -28 -11 -4 -7 -5 10 -2 27 5 65 -9 80 -30 4 -5 10 -6 14 -2 11
11 -22 42 -66 63 -46 22 -49 29 -17 45 12 7 26 17 30 23 5 7 7 6 6 -4 -3 -21
11 -50 23 -50 6 0 5 6 -2 15 -11 14 -6 35 8 35 4 0 16 -13 25 -30 10 -16 26
-29 35 -29 15 1 15 2 0 6 -10 2 -18 9 -18 13 0 11 47 -5 67 -22 8 -6 16 -8 19
-5 14 14 -7 33 -52 51 -83 32 -114 48 -114 58 0 5 12 7 28 3 22 -4 33 0 52 20
13 14 29 25 36 25 6 0 17 6 23 14 23 28 -73 48 -164 34 -17 -2 -21 3 -23 35
-3 32 0 37 17 37 12 0 21 -4 21 -8 0 -5 7 -17 16 -28 13 -16 15 -16 10 -1 -3
9 -1 17 4 17 6 0 10 -6 10 -12 0 -7 5 -5 11 5 10 17 12 17 36 2 24 -16 25 -16
18 6 -4 12 -16 32 -26 43 -11 11 -19 27 -19 37 0 9 -7 19 -15 23 -16 6 -21 41
-6 50 5 3 15 -2 22 -12 13 -15 12 -16 -3 -3 -16 11 -18 11 -18 -2 0 -17 27
-31 34 -18 7 10 -16 71 -26 71 -4 0 -8 14 -8 30 0 20 -5 30 -15 30 -8 0 -15
-7 -15 -15z m1 -133 c1 -34 -1 -65 -4 -69 -4 -3 -7 27 -7 67 0 88 8 90 11 2z
m-21 -33 c0 -17 -4 -28 -10 -24 -5 3 -10 17 -10 31 0 13 5 24 10 24 6 0 10
-14 10 -31z m-36 -28 c-5 -14 -8 -43 -8 -63 0 -20 -4 -34 -9 -31 -5 3 -7 25
-4 49 2 26 0 45 -6 47 -6 2 -8 11 -4 20 4 10 12 14 22 10 13 -4 15 -12 9 -32z
m96 -15 c0 -3 -4 -8 -10 -11 -5 -3 -10 -1 -10 4 0 6 5 11 10 11 6 0 10 -2 10
-4z m47 -103 c2 -6 -11 -14 -29 -18 -18 -4 -36 -13 -40 -19 -6 -8 -10 -8 -15
0 -5 6 -16 13 -26 17 -11 4 -15 12 -11 19 6 9 9 9 12 0 2 -7 8 -12 14 -12 6 0
8 6 5 14 -4 10 6 13 40 12 26 0 48 -6 50 -13z m-147 -58 c0 -8 -4 -15 -10 -15
-5 0 -10 7 -10 15 0 8 5 15 10 15 6 0 10 -7 10 -15z m22 -35 c-2 -16 -6 -30
-8 -30 -2 0 -4 14 -4 30 0 17 4 30 8 30 5 0 7 -13 4 -30z"/>
<path d="M389 677 c5 -5 17 -5 28 2 16 9 15 10 -9 9 -16 -2 -24 -6 -19 -11z"/>
<path d="M415 510 c-3 -5 -1 -10 4 -10 6 0 11 5 11 10 0 6 -2 10 -4 10 -3 0
-8 -4 -11 -10z"/>
<path d="M488 493 c7 -3 16 -2 19 1 4 3 -2 6 -13 5 -11 0 -14 -3 -6 -6z"/>
<path d="M922 779 c-8 -12 -9 -18 -3 -15 5 4 11 -8 14 -26 3 -26 4 -22 5 15 1
26 1 47 -1 47 -1 0 -8 -9 -15 -21z"/>
<path d="M977 793 c-14 -14 -6 -45 13 -50 11 -3 17 -10 14 -15 -3 -5 -13 -7
-21 -4 -8 3 -11 1 -8 -4 7 -12 35 -13 36 -2 0 4 2 18 5 31 6 33 -20 63 -39 44z
m26 -9 c9 -9 -4 -35 -14 -28 -5 3 -9 12 -9 20 0 14 12 19 23 8z"/>
<path d="M1043 793 c12 -3 16 -10 13 -20 -15 -38 -18 -63 -7 -63 6 0 11 13 11
29 0 17 5 33 10 36 19 12 10 25 -17 24 -19 -1 -22 -3 -10 -6z"/>
<path d="M1103 793 c12 -3 16 -10 13 -20 -15 -38 -18 -63 -7 -63 6 0 11 13 11
29 0 17 5 33 10 36 16 10 1 25 -23 24 -18 -1 -19 -2 -4 -6z"/>
<path d="M884 645 c1 -43 2 -45 31 -44 24 1 25 3 8 6 -13 2 -23 11 -23 18 0 7
10 16 23 18 l22 4 -22 2 c-13 0 -23 7 -23 15 0 8 10 17 23 19 16 3 14 5 -9 6
-31 1 -32 0 -30 -44z"/>
<path d="M982 651 c-2 -34 -5 -42 -17 -37 -8 3 -15 1 -15 -4 0 -15 30 -12 36
4 3 8 4 29 1 48 -3 29 -4 28 -5 -11z"/>
<path d="M1013 645 c0 -27 2 -38 4 -22 2 15 2 37 0 50 -2 12 -4 0 -4 -28z"/>
<path d="M1040 645 c0 -37 3 -45 19 -45 21 0 38 18 36 40 -1 8 -3 23 -3 33 -1
11 -10 17 -27 17 -23 0 -25 -4 -25 -45z m42 18 c6 -28 -3 -53 -18 -53 -9 0
-14 12 -14 35 0 37 25 51 32 18z"/>
<path d="M1120 674 c-17 -20 -2 -67 23 -72 23 -5 41 42 27 69 -13 23 -33 25
-50 3z m38 -26 c-3 -36 -15 -42 -31 -17 -13 21 -2 49 18 49 12 0 15 -8 13 -32z"/>
<path d="M836 583 c-3 -3 -5 -27 -4 -52 l1 -46 5 40 c3 32 6 36 12 20 8 -18 9
-17 9 7 1 27 -11 43 -23 31z"/>
<path d="M887 583 c-3 -5 -1 -28 3 -53 l7 -45 2 53 c1 49 -2 62 -12 45z"/>
<path d="M922 543 c3 -41 6 -48 26 -51 12 -2 22 1 22 7 0 6 -9 11 -20 11 -11
0 -20 6 -20 14 0 9 7 12 20 9 11 -3 20 0 20 6 0 6 -9 11 -20 11 -11 0 -20 5
-20 10 0 6 9 10 20 10 11 0 20 5 20 10 0 6 -11 10 -26 10 -24 0 -25 -2 -22
-47z"/>
<path d="M987 584 c-11 -11 -8 -84 3 -84 6 0 10 7 10 15 0 22 15 18 34 -7 9
-13 14 -16 9 -8 -4 8 -7 31 -8 50 0 27 -4 36 -20 38 -12 2 -24 0 -28 -4z m43
-23 c0 -5 -7 -11 -15 -15 -9 -3 -15 0 -15 9 0 8 7 15 15 15 8 0 15 -4 15 -9z"/>
<path d="M1063 540 c0 -30 2 -43 4 -27 2 15 2 39 0 55 -2 15 -4 2 -4 -28z"/>
<path d="M1087 583 c-14 -13 -7 -84 8 -89 24 -9 45 15 45 51 0 36 -32 59 -53
38z m43 -43 c0 -20 -5 -30 -15 -30 -10 0 -15 10 -15 30 0 20 5 30 15 30 10 0
15 -10 15 -30z"/>
<path d="M1166 543 c-9 -25 -14 -49 -11 -51 2 -3 7 3 11 12 8 21 23 20 41 -1
12 -16 13 -15 7 12 -9 38 -22 75 -28 75 -2 0 -11 -21 -20 -47z m34 -5 c0 -5
-4 -8 -10 -8 -5 0 -10 10 -10 23 0 18 2 19 10 7 5 -8 10 -18 10 -22z"/>
<path d="M1310 569 c0 -13 5 -31 10 -39 7 -11 8 -5 4 20 -8 43 -14 51 -14 19z"/>
<path d="M871 538 c0 -9 -4 -25 -7 -35 -5 -14 -4 -15 5 -7 7 7 11 22 8 35 -2
13 -5 16 -6 7z"/>
<path d="M1063 458 c-33 -20 -93 -18 -93 3 0 5 -15 9 -32 9 -23 0 -29 -3 -19
-9 11 -7 9 -10 -10 -14 -19 -3 -18 -5 9 -6 17 0 32 3 32 9 0 5 16 0 35 -11 19
-12 32 -25 29 -30 -8 -14 -26 -11 -18 4 4 6 4 9 -1 5 -4 -4 -13 -4 -19 1 -14
10 -86 2 -86 -10 0 -5 14 -9 30 -9 17 0 30 5 30 13 0 9 2 9 8 0 4 -7 19 -16
32 -22 22 -8 22 -10 5 -11 -14 0 -16 -3 -8 -8 7 -4 29 -6 48 -4 28 3 33 7 25
17 -13 15 22 24 80 20 19 -1 53 -3 75 -4 22 -2 34 -5 28 -8 -24 -9 -13 -24 14
-21 65 8 14 44 -67 48 -25 1 -60 3 -78 4 -18 1 -36 -2 -38 -6 -9 -14 -44 -9
-38 5 5 14 59 37 88 37 9 0 14 5 11 10 -9 15 -36 11 -72 -12z"/>
<path d="M1156 472 c-5 -9 105 -44 113 -37 4 5 -44 25 -66 29 -7 1 -16 5 -19
9 -10 9 -22 9 -28 -1z"/>
<path d="M730 400 c-9 -6 -10 -10 -3 -10 6 0 15 5 18 10 8 12 4 12 -15 0z"/>
<path d="M1312 394 c-11 -12 -10 -15 2 -20 9 -3 24 -3 34 1 14 6 15 8 2 13 -8
3 -17 8 -20 12 -3 4 -11 1 -18 -6z"/>
<path d="M1090 380 c0 -5 11 -10 24 -10 14 0 28 5 31 10 4 6 -7 10 -24 10 -17
0 -31 -4 -31 -10z"/>
<path d="M703 373 c9 -2 25 -2 35 0 9 3 1 5 -18 5 -19 0 -27 -2 -17 -5z"/>
<path d="M1641 683 c8 -10 31 -36 52 -58 47 -48 32 -16 -17 38 -34 37 -60 52
-35 20z"/>
</g>
</svg>
